<?xml version="1.0" encoding="UTF-8" standalone="no"?>
<!-- Generator: Adobe Illustrator 15.1.0, SVG Export Plug-In . SVG Version: 6.00 Build 0)  -->

<svg
   xmlns:dc="http://purl.org/dc/elements/1.1/"
   xmlns:cc="http://creativecommons.org/ns#"
   xmlns:rdf="http://www.w3.org/1999/02/22-rdf-syntax-ns#"
   xmlns:svg="http://www.w3.org/2000/svg"
   xmlns="http://www.w3.org/2000/svg"
   xmlns:sodipodi="http://sodipodi.sourceforge.net/DTD/sodipodi-0.dtd"
   xmlns:inkscape="http://www.inkscape.org/namespaces/inkscape"
   version="1.1"
   id="Layer_1"
   x="0px"
   y="0px"
   width="797.79999"
   height="797.80029"
   viewBox="0 0 797.79999 797.80029"
   enable-background="new 0 0 612 792"
   xml:space="preserve"
   inkscape:version="0.48.5 r10040"
   sodipodi:docname="CopperRat.svg"
   inkscape:export-filename="f:\Data\Programming\Github\CopperRat\etc\CopperRat_circle144.png"
   inkscape:export-xdpi="16.24"
   inkscape:export-ydpi="16.24"><metadata
   id="metadata3081"><rdf:RDF><cc:Work
       rdf:about=""><dc:format>image/svg+xml</dc:format><dc:type
         rdf:resource="http://purl.org/dc/dcmitype/StillImage" /><dc:title></dc:title></cc:Work></rdf:RDF></metadata><defs
   id="defs3079"><linearGradient
     id="linearGradient3852"><stop
       style="stop-color:#ffffff;stop-opacity:1;"
       offset="0"
       id="stop3854" /><stop
       style="stop-color:#d6d6d6;stop-opacity:1;"
       offset="1"
       id="stop3856" /></linearGradient></defs><sodipodi:namedview
   pagecolor="#000000"
   bordercolor="#666666"
   borderopacity="1"
   objecttolerance="10"
   gridtolerance="10"
   guidetolerance="10"
   inkscape:pageopacity="0"
   inkscape:pageshadow="2"
   inkscape:window-width="1920"
   inkscape:window-height="1027"
   id="namedview3077"
   showgrid="false"
   fit-margin-top="1"
   fit-margin-left="1"
   fit-margin-right="1"
   fit-margin-bottom="1"
   showguides="true"
   inkscape:guide-bbox="true"
   inkscape:zoom="0.70710678"
   inkscape:cx="246.42285"
   inkscape:cy="229.99955"
   inkscape:window-x="-8"
   inkscape:window-y="-8"
   inkscape:window-maximized="1"
   inkscape:current-layer="layer3" />

<g
   inkscape:groupmode="layer"
   id="layer2"
   inkscape:label="BGblack"
   style="display:none"
   sodipodi:insensitive="true"
   transform="translate(1,0.99999701)"><rect
     style="fill:#000000;fill-opacity:1;stroke:none"
     id="rect3850"
     width="951.11267"
     height="903.82343"
     x="-79"
     y="-65.224098" /></g><g
   inkscape:groupmode="layer"
   id="layer3"
   inkscape:label="BGcircle"
   transform="translate(1,0.99999701)"
   style="display:inline"><path
     sodipodi:type="arc"
     style="fill:#000000;fill-opacity:1;stroke:none"
     id="path3871"
     sodipodi:cx="397.39401"
     sodipodi:cy="378.6073"
     sodipodi:rx="383.25186"
     sodipodi:ry="383.25186"
     d="m 780.64587,378.6073 a 383.25186,383.25186 0 1 1 -766.503719,0 383.25186,383.25186 0 1 1 766.503719,0 z"
     transform="translate(1.4142136,19.798987)" /></g><g
   inkscape:groupmode="layer"
   id="layer1"
   inkscape:label="Main"
   transform="translate(1,0.99999701)"><g
     id="g3055"
     transform="translate(0,3.8000004)"
     style="fill:#ffffff;fill-opacity:1"><path
       d="m 96.2,653.6 0.1,0.1 c 6.4,7.5 13.2,14.7 20.3,21.8 3.2,3.2 6.4,6.2 9.7,9.2 0.2,0.3 0.4,0.5 0.7,0.7 l 43,35.5 c 0.3,0.3 0.6,0.5 0.8,0.7 66,46.8 141.7,70.3 227.1,70.4 83.5,0.1 161.4,-24.3 233.5,-73 3.1,-2.1 9.9,-8.1 20.3,-18 9.4,-8 18.6,-16.5 27.6,-25.5 7.1,-7.1 13.9,-14.3 20.5,-21.8 64,-73.3 96,-159.8 96,-259.6 C 795.8,284.2 757,190.4 679.3,112.7 601.6,35 507.8,-3.8 397.9,-3.8 288,-3.8 194.3,35 116.6,112.7 38.9,190.4 0,284.2 0,394.1 0.1,493.9 32.1,580.3 96.2,653.6 z m 50.9,8.1 c -2.8,-2.7 -5.7,-5.5 -8.5,-8.3 -6.7,-6.5 -12.9,-13.2 -18.9,-20.2 C 60.6,565.7 31.1,486.1 31.1,394.1 31.1,292.8 67,206.4 138.6,134.8 210.2,63.1 296.6,27.4 397.9,27.4 c 101.3,0 187.7,35.7 259.4,107.4 71.6,71.6 107.3,158 107.3,259.3 0.1,92 -29.3,171.6 -88.3,239.1 l 0,0 c -6,6.9 -12.4,13.6 -19,20.2 -4.1,4.1 -8.2,8 -12.3,11.8 -7.2,-0.2 -14.4,-0.3 -21.5,-0.2 -46.5,0.2 -92.2,-4.4 -137.3,-13.7 -0.2,0 -0.4,0 -0.6,0.2 -0.1,0.1 -0.2,0.2 -0.2,0.4 -0.1,0.2 -0.1,0.4 0,0.5 0,0.2 0.2,0.3 0.4,0.4 0,0 0.1,0 0.1,0.1 l 0.1,0 c 7,3 11.6,6.3 14,9.8 0.1,0.2 0.3,0.3 0.4,0.4 0.2,0 0.5,0 0.6,-0.2 0.2,0.4 0.4,0.8 0.6,1.3 0.3,0.8 0.5,1.6 0.6,2.3 0.6,3.8 -1.1,5.9 -4.8,6.3 3.6,1.8 3.7,4 0.2,6.7 0.8,4.4 -1,6.1 -5.5,5 1.7,3.1 -2.7,3.6 -13,1.4 -4,1.7 -10.5,2.5 -19.6,2.6 -3.2,-0.3 -6.5,-0.7 -9.7,-1 l -0.1,0 c -0.6,-0.1 -1.3,-0.2 -1.9,-0.3 -0.2,0 -0.4,0.1 -0.6,0.3 -0.2,0.1 -0.3,0.2 -0.3,0.4 0,0.3 0,0.4 0.2,0.7 0.2,0.1 0.3,0.2 0.5,0.2 0.7,0 1.3,0.1 2,0.2 l 0,0 c 11.2,1.1 22.2,2.4 33,4.1 l 0.1,0 c 15.1,3.1 31.7,5.6 49.7,7.5 21.79476,1.97428 44.43516,3.6797 63.6312,4.13913 C 534.33125,742.03906 468.3,760.8 397.9,760.9 c -72.1,0 -136.6,-18.1 -193.6,-54.4 12.7,-1.8 25.2,-4 37.4,-6.5 44.9,-9.3 90.2,-13.8 135.5,-13.9 0.1,0 0.2,0 0.2,0 0.5,0.1 0.9,0.1 1.4,0.1 l 0.1,0 c 0,0 0.1,0 0.2,0 13.8,-0.2 27.6,0.1 41.3,0.7 2.4,0.1 4.8,0.3 7.2,0.4 0.2,0 0.3,0 0.5,-0.1 0.2,-0.2 0.3,-0.4 0.3,-0.5 0,-0.3 -0.1,-0.5 -0.2,-0.6 -0.1,-0.2 -0.3,-0.3 -0.6,-0.3 -2.3,-0.1 -4.7,-0.3 -7.2,-0.4 -13.5,-0.7 -27.1,-1 -40.8,-0.8 -0.2,-0.1 -0.2,-0.1 -0.4,-0.1 -0.4,0 -0.8,0 -1.2,0 l -0.2,0 c -0.2,0 -0.2,0 -0.4,0 0,0 0,0 -0.1,0 -7.7,-1.9 -12.7,-4.6 -14.9,-8 -1.3,-2.2 -1.8,-4 -1.5,-5.3 0.4,-1.4 1.5,-2.3 3.3,-2.9 0.2,-0.1 0.3,-0.1 0.4,-0.3 0.1,-0.1 0.2,-0.3 0.2,-0.5 0,-0.2 -0.1,-0.3 -0.2,-0.4 -0.1,-0.2 -0.2,-0.3 -0.4,-0.3 -1.6,-0.4 -2.5,-1 -2.8,-1.8 -0.1,-0.9 0.5,-2.1 1.7,-3.4 0,-0.2 0.1,-0.3 0.2,-0.4 0,-0.1 0,-0.4 -0.1,-0.5 -0.8,-1.7 -0.8,-3 -0.3,-3.8 0.7,-0.7 2,-1.1 4,-1 0.2,0 0.4,-0.1 0.5,-0.2 0.2,-0.1 0.3,-0.3 0.3,-0.5 0,-0.3 -0.1,-0.4 -0.1,-0.5 -0.5,-0.6 -0.8,-1.1 -0.8,-1.5 -0.1,-0.2 0,-0.5 0.2,-0.6 0.8,-0.7 2.4,-1 4.9,-1.2 0.2,0 0.3,0 0.5,-0.1 0.1,-0.1 0.2,-0.4 0.2,-0.6 0,-0.1 0,-0.3 0,-0.4 -0.5,-0.7 -0.7,-1.4 -0.4,-2 0.4,-0.7 1.3,-1.4 2.6,-2 0.1,-0.1 0.3,-0.1 0.4,-0.3 0.1,-0.2 0.1,-0.4 0.1,-0.6 -0.1,-0.1 -0.2,-0.2 -0.3,-0.3 -0.1,-0.2 -0.3,-0.3 -0.6,-0.3 -46,-0.3 -91.9,4.2 -137.6,13.5 -25.4,5.3 -52,9 -79.8,11.5 z"
       id="path3057"
       inkscape:connector-curvature="0"
       style="fill:#ffffff;fill-opacity:1;stroke:none"
       sodipodi:nodetypes="ccscccccccscsssscccccscsscccscccscccccccccccccccccccscscccccccccccscccccsccccsssccccccscccccccccscccccscccscccccc" /><path
       d="m 540.4,76.9 c -0.4,-0.3 -0.8,-0.5 -1.1,-0.8 -2.2,-1.4 -4.3,-2.1 -6.5,-2.1 -2.2,0 -4.3,0.7 -6.3,2.1 -4.3,2.9 -8.2,9.1 -11.5,18.6 -5.1,13.4 -7.6,29.8 -7.7,49 -11.9,-11.9 -26.4,-20.8 -43.4,-26.7 -15.9,-5.6 -33.3,-8.3 -52.3,-8.1 -18.7,0.1 -37.5,2.6 -56.2,7.5 -19.9,5.2 -36.9,12.5 -51,21.7 -0.4,-16.8 -3,-31.2 -7.5,-43.4 -3.3,-9.5 -7.2,-15.7 -11.5,-18.6 -2,-1.4 -4.1,-2.1 -6.3,-2.1 -2.2,0 -4.4,0.7 -6.5,2.1 -0.4,0.3 -0.8,0.5 -1.2,0.8 -3.8,3.2 -7.3,9.1 -10.5,17.8 -3.3,8.8 -5.4,18.9 -6.5,30 6.9,-26.6 13.2,-40.2 18.9,-41 5.8,-0.8 10.7,2.4 14.9,9.8 4.2,7.5 6.6,15 7.2,22.9 0.5,5.5 0.9,14.6 1,27.5 l 0.2,13.1 c 0,8.5 -0.5,16.5 -1.5,23.8 -1.2,9.3 -3.2,17.9 -6,25.8 -0.4,1.3 -1,6.6 -1.9,16.2 -0.8,8.8 -1.1,15 -1.3,18.6 0,0.1 1.7,2.5 5,7.1 3.9,6 7.3,12 10.2,17.8 9.3,19.1 11.9,35.3 7.9,48.9 -0.78902,2.80539 -1.79621,5.43561 -2.91161,8.13571 0.005,0.003 3.53408,8.41175 3.53408,8.41175 0,0 12.00891,28.53862 24.27753,58.15254 17.5,42.4 27.4,65.7 29.7,70.2 6,11.6 9.1,17.6 9.3,18 l -0.2,-0.3 c 3.4,6.4 6.7,11.9 9.7,16.3 3.2,4.6 7.7,8.5 13.8,12 l 0,0 c 0.4,0.3 0.9,0.5 1.4,0.8 -5.4,-6.5 -8,-13.8 -7.7,-21.8 1.5,-1.7 2.9,-2.8 4.1,-3.5 3.3,-1.9 7.3,-2.9 12.1,-3 5.6,0 9.8,1 12.6,2.8 1.4,1 2.6,2.2 3.2,3.7 0.8,7.6 -1.8,14.9 -7.5,21.8 0.3,-0.3 0.7,-0.5 1.1,-0.7 l -0.1,0.1 c 6,-3.4 10.7,-7.6 14.2,-12.2 2.9,-4.2 6.1,-9.7 9.7,-16.2 l 0,0 c 1.9,-3.8 4.9,-9.7 8.9,-17.5 0.1,-0.3 0.2,-0.5 0.4,-0.8 2.5,-5.2 12.3,-28.5 29.3,-69.7 12.62221,-30.39487 24.60574,-58.85987 24.60574,-58.85987 l 3.33006,-7.55931 c 0,0 -1.81498,-4.28436 -2.3358,-6.28082 l -0.6,-2 c -4,-13.6 -1.5,-30.1 7.9,-49.2 2.8,-5.9 6.2,-11.8 10.2,-17.9 2,-2.9 3.6,-5.3 5,-7.2 -0.3,-6.2 -0.7,-11.7 -1.3,-16.3 -0.7,-10.1 -1.3,-16.1 -1.9,-18 -2.7,-7.5 -4.6,-15.6 -5.8,-24.3 -1.1,-7.8 -1.6,-16.2 -1.6,-25.3 l 0,-6.9 c 0.1,-15.4 0.5,-26.6 1.1,-33.7 0.6,-7.9 3,-15.4 7.3,-22.9 4.1,-7.4 9,-10.6 14.7,-9.8 5.8,0.8 12.1,14.4 19,41 -1.2,-11.4 -3.4,-21.5 -6.5,-30 -3.2,-8.7 -6.7,-14.6 -10.6,-17.8 z"
       id="path3059"
       inkscape:connector-curvature="0"
       sodipodi:nodetypes="ccscccccccccsccccccccccccccccccccccccccccccccccccccccccccccccccsccccccc"
       style="fill:#ffffff;fill-opacity:1;stroke:none" /><path
       d="M 548.3125,187.8125 546,193 l -0.0937,0.0937 c -1.4,2.8 -2.61875,5.19375 -3.71875,7.09375 L 536.5,213.59375 c -3.9,8.9 -5.69375,13.7 -5.59375,14 0.6,4.8 0.9875,10.4125 1.1875,16.8125 0.1,0.5 0.51875,1.5875 1.21875,3.1875 0.7,1.8 1.39375,3.1125 2.09375,3.8125 L 537.5,254.3125 c 4.8,6.9 7.69375,14.7875 8.59375,23.6875 0.3,1.9 0.40625,4.00625 0.40625,6.40625 0,12.8 -3.69375,23.80625 -11.09375,32.90625 -6.82265,8.30584 -14.94196,12.94089 -24.5,13.625 -9.95856,23.5283 -19.88567,47.50147 -27.21875,65.15625 -17.1,41.3 -26.9,64.6 -29.5,70 l -6.09375,49.8125 c -1.9,15.2 -7.1875,31.70625 -15.6875,49.40625 -6.6,13.7 -16.0125,30.2875 -28.3125,49.6875 l 0.0937,0 c -12.3,7.9 -19.475,16.89375 -21.375,27.09375 3.8,-5.9 9.78125,-9.30625 17.78125,-10.40625 5.7,-0.7 10.5,0.80625 14.5,4.40625 3,3.6 5.60625,7.29375 7.90625,11.09375 0.9,1.7 1.9125,3.41875 2.8125,5.21875 -0.1,0.1 -0.21875,0.3 -0.21875,0.5 L 425.5,653 c -0.6,1.1 -1.4125,1.9875 -2.3125,2.6875 -1.7,-1.2 -3.38125,-1.9875 -5.28125,-2.1875 -0.2,0 -0.3,-0.0125 -0.5,0.1875 l -0.0937,0 c -4.7,-0.7 -9.025,-1.19375 -13.125,-1.59375 l -0.0937,0 c -1.6,-0.1 -3.1875,-0.3 -4.6875,-0.5 -5.5,-0.1 -10.3125,0.1125 -14.3125,0.8125 -2.7,0.4 -5.5,1.10625 -8.5,1.90625 0,0.6 0.0125,1.0875 0.3125,1.6875 0.1,0 0.1875,-0.0125 0.1875,0.1875 l -1,0 c -2.9,0.3 -4.48125,0.9 -4.78125,2 -0.2,0.7 0.075,1.40625 0.875,2.40625 -4.6,-0.2 -6.075,1.80625 -4.375,5.90625 -1.4,1.7 -2.01875,3.0875 -1.71875,4.1875 0.2,-0.1 2.4,-0.88125 6.5,-2.28125 2.7,-1.2 6.41875,-2.20625 11.21875,-2.90625 4.4,-0.6 9.59375,-0.8 15.59375,-0.5 1.5,0 3.0875,0.1125 4.6875,0.3125 0.7,0.1 1.51875,0.0875 2.21875,0.1875 3.4,0.4 6.98125,0.9 10.78125,1.5 l 0.5,-4 c 4.7,1.5 6.99375,3.8 7.09375,7 0,0.1 0.11875,0.3 0.21875,0.5 0.2,0.1 0.39375,0.1875 0.59375,0.1875 0.2,0 0.4,-0.0875 0.5,-0.1875 0.1,-0.2 0.3125,-0.4 0.3125,-0.5 0,-4 -2.90625,-6.8 -8.40625,-8.5 l -0.0937,0 0.0937,-0.8125 c -0.3,-0.2 -0.5125,-0.4875 -0.8125,-0.6875 l 0.59375,0 c 3.2,3.5 7.90625,5.2 13.90625,5 0.2,0 0.3,-0.1125 0.5,-0.3125 0.1,-0.1 0.21875,-0.3 0.21875,-0.5 0,-0.2 -0.2125,-0.49375 -0.3125,-0.59375 -0.1,-0.1 -0.29375,-0.1875 -0.59375,-0.1875 -5.4,0.2 -9.59375,-1.30625 -12.59375,-4.40625 0.7,-0.1 1.3,-0.30625 2,-0.40625 0.8,-0.2 1.575,-0.6 2.375,-1 1.1,0.9 2.11875,2.1 3.21875,3.5 0,0.2 0.20625,0.30625 0.40625,0.40625 0.2,0 0.39375,0.0125 0.59375,-0.1875 0.2,-0.1 0.30625,-0.30625 0.40625,-0.40625 0,-0.3 -0.0188,-0.39375 -0.21875,-0.59375 -1,-1.5 -1.9875,-2.71875 -3.1875,-3.71875 1,-0.7 1.8,-1.70625 2.5,-2.90625 0.1,-0.2 0.20625,-0.58125 0.40625,-0.78125 l -0.125,0 c 0.4,-0.9 0.7,-1.90625 1,-2.90625 0.1,-0.3 0.11875,-0.60625 0.21875,-0.90625 0,-0.1 0.006,-0.4 -0.0937,-0.5 -0.2,-0.2 -0.4,-0.30625 -0.5,-0.40625 -0.3,0 -0.425,0.0187 -0.625,0.21875 -0.1,0 -0.18125,0.0937 -0.28125,0.0937 l 0,-1.3125 c 0,-4.7 -1.5125,-9.68125 -4.3125,-14.78125 10.1,2.1 19.2125,7.08125 27.3125,14.78125 0.4,0.4 0.7875,0.9125 1.1875,1.3125 -0.1,-0.4 -0.20625,-0.9125 -0.40625,-1.3125 -2.3,-5.5 -7.79375,-10.7 -16.59375,-16 9,2.7 17.50625,7.4125 25.40625,14.3125 -2.9,-7.4 -9.2,-13.00625 -19,-16.90625 10.8,2.5 18.49375,6.59375 23.09375,12.09375 -2,-6.6 -8.5,-12.2 -19.5,-17 -4.7,-2.1 -10.4875,-4.0875 -17.6875,-6.1875 L 417,614.90625 c 0.4,-0.2 10.90625,-17.20625 31.40625,-50.90625 3.9,-6.2 12.7,-24.2 26.5,-54 13.2,-28.7 19.88125,-43.4875 19.78125,-44.1875 0.4,2.9 -3.2,16.075 -11,39.875 10.4,-2.7 20.4125,-5 30.3125,-7 15.9,-3.2 25.70625,-4.28125 29.40625,-3.28125 -6.9,5.6 -11.29375,13.38125 -13.09375,23.28125 3.8,-5.9 9.775,-9.275 17.875,-10.375 5.7,-0.8 10.40625,0.675 14.40625,4.375 4.7,5.5 8.41875,11.3 11.21875,17.5 1.7,-6.8 0.5,-13.78125 -3.5,-21.28125 10.5,2.3 20,7.68125 28.5,16.28125 -1.9,-6 -7.625,-11.8 -17.125,-17.5 8.9,2.7 17.4125,7.50625 25.3125,14.40625 -2.8,-7.4 -9.1,-13.00625 -19,-16.90625 10.9,2.5 18.49375,6.61875 23.09375,12.21875 -1.9,-6.7 -6.78125,-11.4125 -14.78125,-14.3125 -7.9,-2.9 -19.8125,-8.60625 -35.3125,-16.90625 -11.7,-6.3 -18.0125,-9.6875 -18.8125,-10.1875 -8.2,-5.3 -14.08125,-11.3 -17.78125,-18 0.3,0.2 2.18125,1.80625 5.78125,4.90625 4.2,3 8.11875,5 11.71875,6 16.2,-16.7 28.98125,-32.9 38.28125,-48.5 9.9,-16.5 16.30625,-33.2 19.40625,-50 5.9,-32.1 2.71875,-67.2 -9.78125,-105.5 -10.8,-33.4 -24.7,-59.09375 -41.5,-77.09375 z M 417.90625,655.09375 c 1.3,0.1 2.60625,0.60625 3.90625,1.40625 -0.4,0.3 -0.90625,0.49375 -1.40625,0.59375 l 0,-0.0937 c -0.7,0.2 -1.5,0.4 -2.5,0.5 z"
       id="path3061"
       transform="translate(0,-3.8000026)"
       inkscape:connector-curvature="0"
       sodipodi:nodetypes="cccccccccccsccccccccccccccccccccccccccccccccccccccccscsccccccssscccccccccccccccccccsccccccccccccccccccccccccccccccccccccccccccc"
       style="fill:#ffffff;fill-opacity:1;stroke:none" /><path
       d="m 280.6,227.2 0.7,-9.3 c -4.2,-6 -8.7,-13.9 -13.7,-23.5 -5,-9.8 -7.2,-15.5 -6.7,-17.2 -34.8,40.8 -53.7,86.8 -56.7,138.1 -1.9,30.3 0.9,67.3 8.1,110.8 3.5,21.8 7.3,40.8 11,57.3 -1.8,3 -7.7,8 -17.6,14.7 -10.5,7 -20.3,12.5 -29.4,16.2 -3.5,1.4 -6.9,2.8 -10.3,4.4 -11.1,4.7 -17.5,10.4 -19.4,17 4.5,-5.5 12.2,-9.6 23,-12.1 -9.8,3.9 -16.2,9.5 -19,16.9 8,-6.9 16.4,-11.7 25.4,-14.4 -9.5,5.7 -15.2,11.5 -17.1,17.4 8.4,-8.5 17.9,-13.9 28.5,-16.2 -4,7.4 -5.1,14.5 -3.6,21.3 2.9,-6.2 6.6,-11.9 11.3,-17.5 3.9,-3.7 8.7,-5.2 14.3,-4.4 8.2,1 14.2,4.5 18,10.4 -1.8,-9.4 -6.7,-17.7 -14.6,-25 l 43.1,0 34.5,-11.9 c -21.3,-21 -37.6,-41.3 -49,-60.7 l 0,0.1 c -4.4,-7.5 -9.8,-24 -16.3,-49.8 -6.5,-25.4 -9.8,-42.9 -10,-52.9 l 8.2,36.7 c 7.1,27.4 15,48.3 23.5,62.8 11.4,19.6 27.8,39.8 49.1,60.7 0.2,0.2 -0.3,1.1 -1.3,2.6 -1.1,1.6 -1.7,2.4 -2,2.3 -5.4,1.4 -12.5,4.1 -21.2,7.9 -11,4.7 -17.6,10.5 -19.5,17 4.5,-5.5 12.2,-9.5 23,-12.1 -9.8,3.9 -16.1,9.6 -19,16.9 8,-6.9 16.5,-11.7 25.5,-14.3 -9.5,5.6 -15.3,11.4 -17.1,17.3 8.4,-8.5 17.9,-13.9 28.5,-16.2 -4,7.4 -5.2,14.6 -3.6,21.3 2.8,-6.2 6.6,-11.9 11.2,-17.4 4,-3.8 8.8,-5.3 14.5,-4.5 8,1 14,4.5 17.9,10.3 0.4,-5.5 -4.2,-12.1 -13.7,-20.1 -9,-6 -13.5,-9.2 -13.6,-9.5 -14.6,-22.5 -25.4,-46.1 -32.4,-70.8 -2.7,-10.1 -5.2,-22.9 -7.4,-38.3 -2.3,-15.3 -3.5,-28.6 -3.8,-39.9 1,22.1 5.7,46.1 14.2,71.9 8.8,27.4 20.3,51.9 34.6,73.6 0.2,0.4 35.52548,15.17404 46.7,19.8 11.17452,4.62596 22.68033,9.21663 31.60506,13.00194 7.88915,3.34608 23.26167,3.9398 32.96636,-0.29458 4.77235,-2.08229 10.43548,-4.73004 16.92858,-7.70736 1.4,-0.6 3.9,-14.5 7.2,-41.7 -0.5,0.9 -1,1.8 -1.3,2.7 -3.7,6.7 -7.1,12.3 -10.2,16.7 l 0,0.1 c -3.9,5.4 -9.2,10 -16,13.9 -3.49891,1.67725 -7.11865,4.5 -10.4,4.5 l -4.6,0 c -2.80455,0 -7.67767,-3.00021 -10.5,-4.6 l 0,0 c -7,-3.9 -12.3,-8.6 -15.8,-13.9 -3.2,-4.5 -6.5,-10.2 -10,-16.9 -0.1,0 -0.2,-0.1 -0.2,-0.1 -0.2,-0.4 -3.2,-6.2 -9,-17.6 l 0,-0.1 c -2.4,-4.4 -12.4,-28 -30,-70.5 -14.15885,-34.16234 -25.4558,-61.16296 -25.4558,-61.16296 0,0 -1.70754,-4.04957 -1.70571,-4.05222 C 291.45626,326.51511 283.33336,321.91908 276.4,313.5 c -7.4,-9.1 -11.1,-20.1 -11.1,-32.9 0,-12.8 3.7,-23.9 11.1,-33 0.7,-0.7 1.4,-1.9 2.2,-3.4 0.7,-1.5 1.1,-2.5 1.1,-3 0.1,-2.5 0.4,-7.2 0.9,-14 z"
       id="path3063"
       inkscape:connector-curvature="0"
       sodipodi:nodetypes="cccccccccccccccccccccccccccccccccccccccccccccccccczsscccccccccccccccccccscccc"
       style="fill:#ffffff;fill-opacity:1;stroke:none" /><path
       d="m 448,461.6 0.1,-0.2 c 0,-0.1 0,-0.2 0,-0.2 l -0.1,0.4 z"
       id="path3065"
       inkscape:connector-curvature="0"
       style="fill:#ffffff;fill-opacity:1;stroke:none" /><path
       d="m 414.9,665.2 c -0.3,0.1 -0.5,0.2 -0.5,0.3 -3,4.2 -6.3,6.2 -9.8,6.2 -0.5,-0.1 -1,-0.2 -1.5,-0.3 1,-2.1 1.7,-4.7 2.2,-7.5 0,-0.2 0,-0.5 -0.2,-0.6 -0.2,-0.1 -0.3,-0.3 -0.5,-0.4 -0.2,0 -0.5,0 -0.6,0.2 -0.1,0.1 -0.3,0.3 -0.4,0.6 -0.3,2.5 -0.9,4.8 -1.8,6.7 -0.1,0 -0.2,0 -0.2,0 l -0.7,-5.4 c -1.9,0.3 -4.6,0.7 -8.2,1.2 -2.9,0.3 -4.6,0.5 -4.8,0.5 -1.6,0.1 -4.1,0.3 -7.6,0.5 -3.7,0.2 -6.6,0.2 -8.9,-0.1 -0.3,-0.1 -1.1,0.1 -2.4,0.6 -4.1,1.4 -4.8,4.5 -2.1,9.2 0.4,0.5 0.7,1 1.2,1.5 0.4,0.4 0.9,0.9 1.5,1.4 3.8,0.5 8.4,0.7 13.6,0.5 1.6,-0.1 3.1,-0.3 4.7,-0.5 4.2,-0.3 8.8,-0.8 13.7,-1.6 v -1.9 c 1.5,0.1 2.8,1.1 4.3,2.9 0.1,0.2 0.3,0.3 0.5,0.3 0.2,0.1 0.4,0 0.5,-0.1 0.2,-0.2 0.3,-0.4 0.4,-0.6 0,-0.1 0,-0.4 -0.2,-0.5 -1.7,-2.1 -3.4,-3.4 -5.2,-3.6 l -0.3,-0.2 v -0.7 c 0.3,-0.3 0.5,-0.6 0.7,-0.9 0.6,0.1 1.3,0.2 1.9,0.3 h 0.1 c 3.3,1.1 5.5,3.8 6.3,8.2 0,0.3 0.2,0.4 0.4,0.5 0.1,0.1 0.4,0.2 0.6,0.1 0.2,0 0.3,-0.1 0.4,-0.3 0.1,-0.2 0.2,-0.4 0.1,-0.6 -0.7,-3.9 -2.2,-6.6 -4.7,-8.2 2.9,-0.7 5.7,-2.9 8.2,-6.5 0.2,-0.1 0.2,-0.2 0.2,-0.5 -0.1,-0.2 -0.2,-0.4 -0.4,-0.5 -0.1,-0.2 -0.3,-0.2 -0.5,-0.2 z"
       id="path3067"
       inkscape:connector-curvature="0"
       style="fill:#ffffff;fill-opacity:1;stroke:none" /><path
       d="m 436.9,666.8 c -0.2,-0.1 -0.4,-0.2 -0.6,-0.1 -0.2,0 -0.4,0.1 -0.4,0.3 -0.2,0.2 -0.3,0.3 -0.2,0.5 0.7,3.9 2.3,6.6 4.8,8.2 -2.9,0.8 -5.7,3 -8.2,6.5 -0.2,0.1 -0.2,0.3 -0.2,0.6 0,0.2 0.2,0.4 0.3,0.5 0.2,0.1 0.4,0.2 0.7,0.1 0.2,0 0.3,-0.1 0.4,-0.2 2.7,-3.9 5.7,-6 8.9,-6.2 -2.9,1.5 -5.5,4.3 -7.8,8.5 -0.1,0.2 -0.1,0.4 0,0.7 0,0.2 0.2,0.3 0.4,0.5 0.1,0 0.3,0 0.5,0 0.3,-0.1 0.4,-0.2 0.5,-0.4 2.6,-4.6 5.5,-7.5 8.9,-8.5 -1.5,2 -2.6,4.5 -3.4,7.4 -0.2,0.5 -0.4,1.1 -0.4,1.7 -0.1,0.2 -0.2,0.3 -0.2,0.5 -0.1,1 -0.3,2.2 -0.3,3.4 -0.1,1 -0.2,2 -0.2,3.2 0,0.2 0,0.3 0.2,0.5 0.1,0.2 0.3,0.2 0.5,0.2 0.3,0 0.4,0 0.5,-0.1 0.2,-0.1 0.3,-0.4 0.3,-0.6 0,-1 0.2,-2 0.2,-3 0.1,-1.2 0.2,-2.3 0.5,-3.3 0,0 0,-0.1 0,-0.2 0,-0.1 0,-0.1 0,-0.2 0.1,-0.6 0.3,-1.1 0.4,-1.6 0.8,-2.9 1.9,-5.3 3.4,-7.2 l 0.5,5.2 c 4.7,-0.9 9,-1.4 13,-1.8 1.6,-0.1 3.2,-0.2 4.7,-0.2 5.8,-0.3 10.8,-0.2 15.1,0.4 -0.1,-0.1 -0.1,-0.1 -0.1,-0.1 -1.2,-0.8 -2.5,-1.7 -3.9,-2.5 -3.6,-2.2 -7.4,-4.8 -11.4,-7.8 l 1.8,-3.4 c -0.5,0 -1,0 -1.5,0 -1.5,0.2 -3.1,0.4 -4.7,0.5 -4.2,0.4 -8.8,0.9 -13.7,1.7 v 5.4 c -0.9,-0.2 -1.8,-0.3 -2.6,-0.5 l 0,0 c -3.4,-1.1 -5.5,-3.8 -6.3,-8.2 -0.1,-0.2 -0.2,-0.3 -0.4,-0.4 z"
       id="path3069"
       inkscape:connector-curvature="0"
       style="fill:#ffffff;fill-opacity:1;stroke:none" /><path
       inkscape:connector-curvature="0"
       style="fill:#ffffff;fill-opacity:1;stroke:none"
       d="m 466.34375,654.46875 a 0.8750875,0.8750875 0 0 0 -0.0625,0.0312 0.8750875,0.8750875 0 0 0 -0.75,0.90625 c 0.0442,1.18707 0.19238,2.36412 0.4375,3.5 0.26119,1.21035 0.61361,2.31541 1.0625,3.34375 -1.46472,-0.68729 -3.04814,-1.06209 -4.65625,-1.125 -1.01117,-0.0396 -2.05041,0.0546 -3.0625,0.28125 a 0.8750875,0.8750875 0 1 0 0.375,1.6875 c 3.45651,-0.77404 7.04726,0.31732 9.65625,2.9375 a 0.88388348,0.88388348 0 0 0 0.3125,0.1875 c 0.005,0.005 0.0263,-0.005 0.0312,0 a 0.88388348,0.88388348 0 0 0 0.0312,0.0312 c 0.33592,0.33931 0.66591,0.6895 1.03125,0.96875 0.23283,0.17797 0.47379,0.31791 0.71875,0.46875 L 471.25,668.09375 C 469.97827,666.952 468.50633,666.22694 467,666 c -2.12053,-0.31947 -4.30644,0.35705 -6.15625,1.96875 A 0.8750875,0.8750875 0 1 0 462,669.28125 c 1.52358,-1.32747 3.15242,-1.80318 4.75,-1.5625 1.26106,0.18998 2.52477,0.87925 3.65625,2.03125 l -1.71875,3.34375 c 4,3 7.80625,5.60625 11.40625,7.90625 1.4,0.7 2.7,1.5 4,2.5 1.7,0.8 3.2125,1.60625 4.8125,2.40625 4.7,-2.6 6.50625,-6.59375 5.40625,-12.09375 -1.4,-0.8 -2.7,-1.5125 -4,-2.3125 -0.8,-0.4 -1.5125,-0.7875 -2.3125,-1.1875 -0.6,-0.3 -1.20625,-0.825 -1.90625,-1.125 -3.4,-2.2 -6.98125,-4.575 -10.78125,-7.375 l -2.9375,4.40625 c -0.19086,-0.1204 -0.37579,-0.23229 -0.5625,-0.375 -1.83853,-1.40532 -3.4014,-3.95942 -4.125,-7.3125 -0.22284,-1.03262 -0.36577,-2.10077 -0.40625,-3.1875 a 0.8750875,0.8750875 0 0 0 -0.9375,-0.875 z"
       transform="translate(0,-3.8000026)"
       id="path3071" /></g></g></svg>