<?xml version="1.0" encoding="UTF-8" standalone="no"?>
<!-- Created with Inkscape (http://www.inkscape.org/) -->

<svg
   xmlns:dc="http://purl.org/dc/elements/1.1/"
   xmlns:cc="http://creativecommons.org/ns#"
   xmlns:rdf="http://www.w3.org/1999/02/22-rdf-syntax-ns#"
   xmlns:svg="http://www.w3.org/2000/svg"
   xmlns="http://www.w3.org/2000/svg"
   xmlns:sodipodi="http://sodipodi.sourceforge.net/DTD/sodipodi-0.dtd"
   xmlns:inkscape="http://www.inkscape.org/namespaces/inkscape"
   id="svg2995"
   version="1.1"
   inkscape:version="0.48.2 r9819"
   width="1058"
   height="543"
   sodipodi:docname="mp3.svg"
   inkscape:export-filename="F:\Data\Programming\Github\CopperRat\etc\mp3.png"
   inkscape:export-xdpi="90"
   inkscape:export-ydpi="90">
  <metadata
     id="metadata3001">
    <rdf:RDF>
      <cc:Work
         rdf:about="">
        <dc:format>image/svg+xml</dc:format>
        <dc:type
           rdf:resource="http://purl.org/dc/dcmitype/StillImage" />
        <dc:title></dc:title>
      </cc:Work>
    </rdf:RDF>
  </metadata>
  <defs
     id="defs2999" />
  <sodipodi:namedview
     pagecolor="#000000"
     bordercolor="#666666"
     borderopacity="1"
     objecttolerance="10"
     gridtolerance="10"
     guidetolerance="10"
     inkscape:pageopacity="0"
     inkscape:pageshadow="2"
     inkscape:window-width="1920"
     inkscape:window-height="1027"
     id="namedview2997"
     showgrid="false"
     inkscape:zoom="1.1039698"
     inkscape:cx="464.51774"
     inkscape:cy="242.72064"
     inkscape:window-x="-8"
     inkscape:window-y="-8"
     inkscape:window-maximized="1"
     inkscape:current-layer="layer2" />
  <g
     inkscape:groupmode="layer"
     id="layer2"
     inkscape:label="Layer#1"
     style="display:inline">
    <g
       id="g3050"
       style="fill:#00ff00;fill-opacity:0.26984127">
      <path
         style="fill:#ffffff;stroke:none;stroke-width:0.10000000000000001;stroke-linejoin:round;stroke-miterlimit:4;stroke-opacity:1;stroke-dasharray:none;fill-opacity:1"
         d="M 231.5,475.94047 C 197.00952,474.36306 170.81908,467.96935 144.3086,454.65499 114.75687,439.81322 84.520792,412.25448 67.630458,384.76653 45.183479,348.23549 35.751305,306.35772 40.075047,262.42368 48.469514,177.12654 98.049017,103.92097 177.5,59.511776 242.08344,23.412808 316.13689,10.191406 376,24.071857 c 19.31866,4.479416 41.21256,13.724251 57.21752,24.160462 28.8852,18.834907 52.15456,47.74539 63.10985,78.409381 2.13879,5.98652 2.34321,7.42655 1.26377,8.90277 -1.85018,2.53027 -3.00303,1.33868 -5.57642,-5.76375 C 484.25157,108.35474 468.53483,85.459874 452.19576,71.775692 433.24026,55.900209 414.04367,46.150023 389.62612,39.9958 352.09546,30.536534 313.50181,32.268929 267.55157,45.475493 193.05375,66.886921 134.64595,111.47487 101.7209,172.06902 85.253589,202.37491 75.587969,240.60242 75.695355,275 c 0.0738,23.63838 4.292532,42.15752 14.23776,62.5 7.730132,15.81161 16.113585,27.36509 28.544975,39.33867 22.66334,21.82871 53.72819,37.2475 87.29221,43.32679 15.14345,2.74286 47.94301,3.00556 64.41781,0.51594 38.18635,-5.7706 67.54179,-19.55391 90.9021,-42.6814 17.3133,-17.14076 22.59987,-25.74256 36.8721,-59.99484 5.38677,-12.92784 15.97479,-37.62763 23.52894,-54.88842 7.55414,-17.26079 13.95953,-33.05864 14.23418,-35.10633 1.26299,-9.41632 -11.44112,-10.85152 -20.41627,-2.11365 -10.5119,10.234 -29.89788,59.32428 -29.89788,59.32428 L 361.85971,338 290.47265,337.991 c -5.68455,0 -1.51985,-7.28443 -1.51985,-7.28443 0,0 44.00481,-99.77819 44.5676,-102.86318 1.88962,-10.35801 -14.0025,-10.36077 -22.54008,-0.004 -4.53191,5.49761 -8.8796,14.50218 -30.49572,63.16021 -10.87291,24.475 -21.55996,47.12327 -21.55996,47.12327 l -71.71457,-0.0363 c -4.8967,0 -0.83186,-6.70098 -0.83186,-6.70098 L 250.05136,189 c 23.29909,0 46.59819,0 69.89728,0 1.69781,1.73376 2.58039,4.24115 2.03795,7.18889 0,0 4.8096,-2.30296 8.25289,-3.6646 11.45113,-4.52832 17.76054,-5.72888 32.76052,-6.23371 21.09088,-0.70982 31.52378,2.11359 40.75812,11.03017 2.13366,2.06024 2.7552,4.37087 3.97813,4.3649 1.96437,-0.01 5.60976,-2.43485 13.76375,-6.04327 13.95456,-6.17538 26.01395,-9.12542 43.05661,-9.69129 16.59503,-0.55101 24.48537,1.00954 33.26578,5.45891 5.19246,2.63122 11.60483,9.05948 13.35916,13.39228 3.88038,9.58364 2.69228,21.74311 -3.63368,37.1884 -10.02432,24.47509 -32.99938,74.90756 -46.04422,101.07149 C 429.6962,406.85809 395.5768,441.79829 346,461.34448 c -30.1816,11.89943 -68.0133,16.72206 -114.5,14.59599 z m 231.74261,-59.98951 c -3.36365,0 -0.11703,-5.85948 -0.11703,-5.85948 L 561.895,189.03728 c 0,0 42.42265,0.1033 75.02525,-0.0177 4.08641,0 3.00208,7.42542 3.00208,7.42542 0,0 4.00373,-2.39207 5.74287,-3.27424 11.33433,-5.78234 28.36432,-8.39431 45.89892,-7.03972 18.27982,1.41216 29.29493,5.65286 37.33251,14.3726 5.66319,6.14384 8.14991,12.07248 8.8288,21.04887 1.08736,14.37737 -2.9479,30.22048 -12.72168,49.94745 -17.86314,36.05422 -49.48826,60.72067 -87.19001,68.00506 -4.57256,0.88347 -13.93874,1.86527 -20.81374,2.18177 -13.8195,0.63621 -20.35394,-0.48965 -31.26717,-5.38722 -4.84809,-2.17569 -6.1561,-3.58304 -6.1561,-3.58304 0,0 -9.19299,21.05021 -18.64766,42.24587 -9.45467,21.19566 -18.70256,41.10862 -18.70256,41.10862 z M 617.00684,310.95937 c 4.39165,-2.19394 12.71573,-10.92358 17.40286,-18.25075 8.90317,-13.9179 21.2358,-41.74073 25.04271,-56.49719 1.89382,-7.34089 2.20277,-18.11871 0.60496,-21.10424 -1.51174,-2.82471 -5.3954,-3.62209 -10.375,-2.13017 -12.66122,3.79339 -24.10911,18.18215 -37.96246,47.7147 -9.1146,19.4305 -12.13141,29.2023 -12.17942,39.45057 -0.033,7.04959 0.30127,9.02043 1.81394,10.69413 3.09005,3.41901 8.96231,3.46514 15.65241,0.12295 z M 770.5,340.85615 c -11.17279,-1.23216 -26.19576,-5.13153 -33.85713,-8.78796 -12.50119,-5.96627 -24.93083,-20.64634 -24.93083,-20.64634 l 39.8197,-29.75832 15.9012,6.35617 c -2.94392,6.34075 -3.96616,16.31463 -0.89672,23.32121 4.38015,8.57543 23.09967,10.22834 40.51067,1.847 9.36041,-4.50593 22.16836,-17.65248 27.24838,-27.46145 9.81761,-18.95676 7.39541,-35.54754 -1.75952,-38.62007 -13.17978,-4.42333 -22.64935,-2.13963 -40.4123,-3.00946 l 9.17859,-23.75275 c 0,0 6.33633,-0.005 13.72533,-0.005 18.52322,0 32.01692,-4.91604 44.1401,-16.24328 8.16381,-7.62783 13.03248,-16.36304 16.37821,-26.64825 3.01585,-9.2711 2.84542,-13.40993 -0.73986,-17.96788 -9.23548,-11.74101 -41.04188,-4.10883 -49.48742,12.31927 -2.28135,4.50209 -3.61099,10.05301 -2.36549,14.12921 l -19.65793,6.74075 -18.24819,-29.85614 c 4.75557,-5.88784 21.10223,-15.76312 36.34492,-21.78666 33.81959,-13.36466 85.42691,-15.25535 109.45748,-4.01009 8.77417,4.10593 14.10454,8.6643 17.67971,15.11917 2.6443,4.77419 2.9701,6.29916 2.96202,13.86422 -0.0266,24.92294 -18.999,46.17985 -51.76662,58 -5.33645,1.925 -13.56321,4.61495 -13.56321,4.61495 0,0 5.91485,1.98977 8.4521,3.33578 6.72848,3.56945 13.55484,10.10467 16.81864,16.10135 6.58966,12.10738 3.78511,30.3471 -7.40163,46.40403 -7.2311,10.37919 -12.54501,14.8814 -21.67188,21.3933 C 854.33463,335.92516 811.8697,345.4185 770.5,340.85615 z"
         id="path3052"
         inkscape:connector-curvature="0"
         sodipodi:nodetypes="ssssssssssssssssssssssssccccsssccccccssssssssssssccccccssssssscsccsssssssssssccccsssccssssccccssssscssscs" />
    </g>
  </g>
</svg>
