<?xml version="1.0" encoding="UTF-8" standalone="no"?>
<!-- Created with Inkscape (http://www.inkscape.org/) -->

<svg
   xmlns:dc="http://purl.org/dc/elements/1.1/"
   xmlns:cc="http://creativecommons.org/ns#"
   xmlns:rdf="http://www.w3.org/1999/02/22-rdf-syntax-ns#"
   xmlns:svg="http://www.w3.org/2000/svg"
   xmlns="http://www.w3.org/2000/svg"
   xmlns:sodipodi="http://sodipodi.sourceforge.net/DTD/sodipodi-0.dtd"
   xmlns:inkscape="http://www.inkscape.org/namespaces/inkscape"
   id="svg3768"
   version="1.1"
   inkscape:version="0.48.5 r10040"
   width="510"
   height="340"
   sodipodi:docname="OggVorbis.svg"
   inkscape:export-filename="F:\Data\Programming\Github\CopperRat\etc\OggVorbis.png"
   inkscape:export-xdpi="90"
   inkscape:export-ydpi="90">
  <metadata
     id="metadata3774">
    <rdf:RDF>
      <cc:Work
         rdf:about="">
        <dc:format>image/svg+xml</dc:format>
        <dc:type
           rdf:resource="http://purl.org/dc/dcmitype/StillImage" />
        <dc:title></dc:title>
      </cc:Work>
    </rdf:RDF>
  </metadata>
  <defs
     id="defs3772" />
  <sodipodi:namedview
     pagecolor="#ffffff"
     bordercolor="#666666"
     borderopacity="1"
     objecttolerance="10"
     gridtolerance="10"
     guidetolerance="10"
     inkscape:pageopacity="0"
     inkscape:pageshadow="2"
     inkscape:window-width="1920"
     inkscape:window-height="1027"
     id="namedview3770"
     showgrid="false"
     inkscape:zoom="1.2352941"
     inkscape:cx="152.04037"
     inkscape:cy="117.87126"
     inkscape:window-x="-8"
     inkscape:window-y="-8"
     inkscape:window-maximized="1"
     inkscape:current-layer="layer2" />
  <g
     inkscape:groupmode="layer"
     id="layer2"
     inkscape:label="Layer#1"
     style="display:inline">
    <g
       id="g4292"
       style="fill:#ffffff;fill-opacity:1"
       inkscape:export-xdpi="90"
       inkscape:export-ydpi="90">
      <path
         id="path4426"
         style="fill:#ffffff;fill-opacity:1"
         d="m 481.98489,267.5 c 0,-65.16097 0.0151,-129.45279 0.0151,-194.616894 0,-23.256257 -18.06472,-44.843489 -44.5,-44.843489 -121.66667,0 -243.33333,0 -365,0 -22.598837,0 -44.460383,18.315881 -44.460383,44.460383 0,65 0,130 0,195 0,22.97943 18.504412,44.30823 42.460383,44.30823 124.90977,0.0601 247.52629,0.11911 367,0.1766 25.76608,0 44.48489,-21.33195 44.4849,-44.48483 z M 0.0952381,271.38095 c 0,-67.27406 -0.02455293,-133.53069 -0.02455293,-201.432554 C 0.07068517,38.622822 25.913406,0.07068517 71.52255,0.07068517 198.45432,0.5875896 313.40348,0.5 440.62402,0.5 c 41.62739,0 69.4484,36.484025 69.4484,72.310494 0,70.433326 0.28621,123.419236 0.28621,196.382476 0,37.63152 -32.30062,70.30104 -67.87598,70.30104 -129,0.0886 -240.08979,0.17722 -369.089793,0.26583 -48.479214,0 -73.4821766,-39.06762 -73.2976189,-68.37889 z"
         inkscape:connector-curvature="0"
         sodipodi:nodetypes="cccccccccccccccccc" />
      <path
         style="fill:#ffffff;fill-opacity:1"
         d="m 84.658244,255.19294 c 21.632676,-0.85127 37.670446,-0.28764 56.833086,-0.12225 18.0706,0 19.15208,27.98212 1.07492,27.98212 l -58.882247,0.003 c -16.959596,0 -16.420058,-27.86292 0.974241,-27.86292 z"
         id="path4424"
         inkscape:connector-curvature="0"
         sodipodi:nodetypes="ccccc" />
      <path
         id="path4420"
         style="fill:#ffffff;fill-opacity:1"
         d="m 267.57916,169.99405 c 0,0 -16.28795,0.30357 -27.32225,0.30357 -17.16783,0 -18.57571,27.89728 1.49272,27.89728 11.66667,0 25.58929,0.20238 25.58929,0.20238 21.65767,0 20.54032,-28.40323 0.24024,-28.40323 z M 213.21398,255 c 19.42867,-0.001 36.42878,-0.003 55.85745,-0.004 7.95255,0 14.13095,-5.77467 14.13095,-13.0248 -0.24089,-7.72493 0,-18.28522 0,-26.0126 -1.35717,5.06502 -6.60619,10.82698 -15.91667,10.82698 -9.26108,0.21628 -15.28495,0.18632 -24.54761,0.17878 -15.17063,0 -27.99303,-5.09687 -36.61461,-18.44296 -6.77119,-10.48172 -8.86116,-19.33778 -7.02994,-30.62254 3.61627,-22.28498 20.81942,-35.67906 41.91426,-36.49122 12.24868,0 17.18324,0.1901 27.0542,0.17122 7.97738,0 13.09401,5.48922 15.38369,11.57118 l 0.12586,-11.50867 27.57069,0.14311 c 0.37902,39.63937 0.42931,71.83785 0.42931,111.4784 0,17.4443 -13.17555,29.94063 -29.00867,29.94063 -23.11585,-0.24022 -69.65247,-0.20266 -69.65247,-0.20266 z"
         inkscape:connector-curvature="0"
         sodipodi:nodetypes="cccccccccccssccccccccc" />
      <path
         style="fill:#ffffff;fill-opacity:1"
         d="m 141.5,184.24536 c 0,-29.69957 0.20238,-55.75627 0.20238,-85.455842 0,-7.788141 -6.35863,-13.593089 -12.99118,-13.593089 -12.31445,0 -18.05151,0 -30.365962,0 -7.119013,0 -13.25,6.293305 -13.25,13.962469 0,31.179892 0.101191,54.365742 0.101191,85.545632 0,8.77087 6.843573,12.89906 16.586161,13.59641 9.98763,0.001 18.76098,-0.30157 28.74861,-0.29957 5.14421,0 10.9688,-7.51919 10.9688,-13.75601 z m -84.715525,0.71331 c 0,-34.72878 0.28621,-51.85565 0.28621,-86.584429 0,-21.245021 19.23839,-41.160451 38.275867,-41.160451 16.531058,0 18.285498,-0.143105 34.996468,-0.143105 20.65913,0 39.41413,21.516831 39.41413,41.00483 0.36626,34.291515 -0.057,56.157385 -0.25908,86.695085 0,24.12125 -20.9484,41.57676 -38.47261,41.57676 -11.43804,0.0819 -19.61785,0.57856 -31.035155,0.40129 -24.536952,0 -43.20583,-21.3286 -43.20583,-41.78998 z"
         id="path4412"
         inkscape:connector-curvature="0"
         sodipodi:nodetypes="cccccccccccccccccc" />
      <path
         style="fill:#ffffff;fill-opacity:1"
         d="m 284.38776,103.12403 c 3.70019,-4.186377 3.76912,-11.000147 -0.009,-14.932714 -1.66134,-1.72928 -4.97215,-2.699938 -7.63144,-1.857508 -2.5643,0.799676 -4.58868,2.283091 -5.69705,4.830551 -1.68064,3.444438 -1.06257,7.614999 0.77836,10.853941 2.73164,3.82348 9.22124,4.45489 12.55907,1.10573 z M 271.5,112.06493 c -5.46125,-1.26403 -11.02481,-4.36528 -13.32917,-9.72439 -1.09029,-3.079179 -1.34149,-6.468244 -0.85275,-9.690147 0.71959,-4.036119 3.18348,-7.715 6.67018,-9.878011 4.82602,-3.837985 11.39612,-4.089533 17.33373,-3.845721 6.54586,0.268788 13.58518,2.852001 16.95071,8.736769 2.70691,5.582305 2.28135,12.55353 -0.99218,17.80303 -3.96763,5.02772 -10.57145,6.98356 -16.74158,7.2893 -3.02169,0.20488 -6.10774,0.14722 -9.03894,-0.69083 z"
         id="path4408"
         inkscape:connector-curvature="0"
         sodipodi:nodetypes="cscccccccccscccc" />
      <path
         id="path4473"
         style="fill:#ffffff;fill-opacity:1"
         d="m 372.06083,101.5 c 0.50301,-1.35394 1.41188,-5.15178 1.19549,-7.466966 -0.21639,-2.315186 -0.99622,-4.475837 -2.44519,-5.903225 -1.44897,-1.427388 -3.61458,-1.761019 -5.49006,-1.913843 -1.87548,-0.152824 -3.88216,0.08777 -5.37868,1.028202 -1.49652,0.94043 -2.42959,2.024767 -2.94239,4.200844 -0.5128,2.176077 -0.7306,5.896163 0,8.285271 0.7306,2.389107 2.14808,4.293317 4.14516,5.269717 1.99708,0.9764 4.54639,0.73065 6.63327,0 2.20661,-0.77257 3.77939,-2.14606 4.2824,-3.5 z m -15.67528,5.77692 -0.22617,4.63209 -12.05452,0.0822 -0.01,-45.047758 12.12618,-0.05875 c 0,0 0.10743,11.824692 0.12084,17.29089 6.51637,-5.724896 14.88732,-7.338053 21.66791,-2.925604 5.99096,3.8986 7.76279,8.328957 7.76279,15.960321 0,10.457471 -8.99649,15.432391 -16.23485,15.767681 -5.10456,0.34015 -10.73317,-2.56664 -13.15218,-5.70107 z"
         inkscape:connector-curvature="0"
         sodipodi:nodetypes="zsssssssszccccccsccc" />
      <path
         style="fill:#ffffff;fill-opacity:1"
         d="m 417.94413,111.00705 c 0,0 0.0555,-6.78203 0.14852,-8.01731 5.11096,1.94773 10.55578,2.92342 15.4923,3.18771 1.88713,0.10103 4.91183,-0.21381 6.50069,-1.23705 3.20136,-2.06169 0.6067,-4.71046 -1.90314,-5.186642 -6.61763,-1.104408 -17.25833,-0.762448 -19.61008,-6.931545 -1.55735,-4.482509 -0.69133,-9.277967 3.42423,-11.666003 2.24727,-1.236664 4.76858,-2.380733 7.32427,-2.380733 11.81668,0 21.13383,1.96276 21.13383,1.96276 l 0.0985,7.328203 c -5.43799,-1.931917 -13.40355,-3.152057 -18.61265,-2.372785 -1.26869,0.212058 -3.51176,1.683953 -3.46615,2.969436 0.0394,1.110945 1.54011,2.10867 3.05007,2.367114 C 442.25456,92.86676 453,92.458036 453,102.54605 c 0,4.10233 -3.16986,8.52385 -8.97192,9.43472 -9.71881,1.52577 -16.84154,0.30548 -26.08395,-0.97372 z"
         id="path4402"
         inkscape:connector-curvature="0"
         sodipodi:nodetypes="ccsscccscccssssc" />
      <path
         style="fill:#ffffff;fill-opacity:1"
         d="M 198.88213,68.880952 211.8797,68.690476 225.83234,100.39347 240.24489,69 252.60714,69 233.35865,111.79762 217.89492,112 z"
         id="path4400"
         inkscape:connector-curvature="0" />
      <path
         style="fill:#ffffff;fill-opacity:1"
         d="M 309.1431,111.95461 309,95.440322 l 0.21466,-16.084974 12.28968,0.07397 0.0222,5.173971 c 4.79185,-4.939947 10.82509,-6.575455 16.33123,-5.532601 0,2.98431 0.14311,6.328291 0.14311,9.285067 -5.15178,-2.075022 -14.62344,-1.427945 -16.50174,4.350637 0,6.763236 -0.0691,12.752038 -0.0691,19.222058 z"
         id="path4398"
         inkscape:connector-curvature="0" />
      <path
         style="fill:#ffffff;fill-opacity:1"
         d="m 395.07155,112.02617 -0.1431,-32.813927 12.36147,0.145519 L 407.42999,112 z"
         id="path4396"
         inkscape:connector-curvature="0"
         sodipodi:nodetypes="ccccc" />
      <path
         style="fill:#ffffff;fill-opacity:1"
         d="m 394.99913,66.712923 12.33685,0.04908 -0.113,8.309545 -12.07283,0.214658 z"
         id="path4294"
         inkscape:connector-curvature="0"
         sodipodi:nodetypes="ccccc" />
      <path
         id="path4420-1"
         style="fill:#ffffff;fill-opacity:1;display:inline"
         d="m 409.22929,169.78372 c 0,0 -16.28795,0.30357 -27.32225,0.30357 -17.16783,0 -18.57571,27.89728 1.49272,27.89728 11.66667,0 25.58929,0.20238 25.58929,0.20238 21.65767,0 20.54032,-28.40323 0.24024,-28.40323 z m -54.36518,85.00595 c 19.42867,-0.001 36.42878,-0.003 55.85745,-0.004 7.95255,0 14.13095,-5.77467 14.13095,-13.0248 -0.24089,-7.72493 0,-18.28522 0,-26.0126 -1.35717,5.06502 -6.60619,10.82698 -15.91667,10.82698 -9.26108,0.21628 -15.28495,0.18632 -24.54761,0.17878 -15.17063,0 -27.99303,-5.09687 -36.61461,-18.44296 -6.77119,-10.48172 -8.86116,-19.33778 -7.02994,-30.62254 3.61627,-22.28498 20.81942,-35.67906 41.91426,-36.49122 12.24868,0 17.18324,0.1901 27.0542,0.17122 7.97738,0 13.09401,5.48922 15.38369,11.57118 l 0.12586,-11.50867 27.57068,0.14311 c 0.37902,39.63937 0.42931,71.83785 0.42931,111.4784 0,17.4443 -13.17554,29.94063 -29.00866,29.94063 -23.11585,-0.24022 -69.65247,-0.20266 -69.65247,-0.20266 z"
         inkscape:connector-curvature="0"
         sodipodi:nodetypes="cccccccccccssccccccccc" />
    </g>
  </g>
</svg>
